<svg class="rich-terminal" viewBox="0 0 1482 904.0" xmlns="http://www.w3.org/2000/svg">
    <!-- Generated with Rich https://www.textualize.io -->
    <style>

    @font-face {
        font-family: "Fira Code";
        src: local("FiraCode-Regular"),
                url("https://cdnjs.cloudflare.com/ajax/libs/firacode/6.2.0/woff2/FiraCode-Regular.woff2") format("woff2"),
                url("https://cdnjs.cloudflare.com/ajax/libs/firacode/6.2.0/woff/FiraCode-Regular.woff") format("woff");
        font-style: normal;
        font-weight: 400;
    }
    @font-face {
        font-family: "Fira Code";
        src: local("FiraCode-Bold"),
                url("https://cdnjs.cloudflare.com/ajax/libs/firacode/6.2.0/woff2/FiraCode-Bold.woff2") format("woff2"),
                url("https://cdnjs.cloudflare.com/ajax/libs/firacode/6.2.0/woff/FiraCode-Bold.woff") format("woff");
        font-style: bold;
        font-weight: 700;
    }

    .terminal-3099049785-matrix {
        font-family: Fira Code, monospace;
        font-size: 20px;
        line-height: 24.4px;
        font-variant-east-asian: full-width;
    }

    .terminal-3099049785-title {
        font-size: 18px;
        font-weight: bold;
        font-family: arial;
    }

    .terminal-3099049785-r1 { fill: #c5c8c6 }
.terminal-3099049785-r2 { fill: #e0e0e0 }
.terminal-3099049785-r3 { fill: #ddedf9;font-weight: bold }
.terminal-3099049785-r4 { fill: #ddedf9;font-weight: bold;font-style: italic; }
.terminal-3099049785-r5 { fill: #92c5ec;font-weight: bold }
.terminal-3099049785-r6 { fill: #0178d4 }
.terminal-3099049785-r7 { fill: #98e024 }
.terminal-3099049785-r8 { fill: #a1a1a1 }
.terminal-3099049785-r9 { fill: #98e024;font-weight: bold }
.terminal-3099049785-r10 { fill: #ffa62b;font-weight: bold }
.terminal-3099049785-r11 { fill: #495259 }
    </style>

    <defs>
    <clipPath id="terminal-3099049785-clip-terminal">
      <rect x="0" y="0" width="1463.0" height="853.0" />
    </clipPath>
    <clipPath id="terminal-3099049785-line-0">
    <rect x="0" y="1.5" width="1464" height="24.65"/>
            </clipPath>
<clipPath id="terminal-3099049785-line-1">
    <rect x="0" y="25.9" width="1464" height="24.65"/>
            </clipPath>
<clipPath id="terminal-3099049785-line-2">
    <rect x="0" y="50.3" width="1464" height="24.65"/>
            </clipPath>
<clipPath id="terminal-3099049785-line-3">
    <rect x="0" y="74.7" width="1464" height="24.65"/>
            </clipPath>
<clipPath id="terminal-3099049785-line-4">
    <rect x="0" y="99.1" width="1464" height="24.65"/>
            </clipPath>
<clipPath id="terminal-3099049785-line-5">
    <rect x="0" y="123.5" width="1464" height="24.65"/>
            </clipPath>
<clipPath id="terminal-3099049785-line-6">
    <rect x="0" y="147.9" width="1464" height="24.65"/>
            </clipPath>
<clipPath id="terminal-3099049785-line-7">
    <rect x="0" y="172.3" width="1464" height="24.65"/>
            </clipPath>
<clipPath id="terminal-3099049785-line-8">
    <rect x="0" y="196.7" width="1464" height="24.65"/>
            </clipPath>
<clipPath id="terminal-3099049785-line-9">
    <rect x="0" y="221.1" width="1464" height="24.65"/>
            </clipPath>
<clipPath id="terminal-3099049785-line-10">
    <rect x="0" y="245.5" width="1464" height="24.65"/>
            </clipPath>
<clipPath id="terminal-3099049785-line-11">
    <rect x="0" y="269.9" width="1464" height="24.65"/>
            </clipPath>
<clipPath id="terminal-3099049785-line-12">
    <rect x="0" y="294.3" width="1464" height="24.65"/>
            </clipPath>
<clipPath id="terminal-3099049785-line-13">
    <rect x="0" y="318.7" width="1464" height="24.65"/>
            </clipPath>
<clipPath id="terminal-3099049785-line-14">
    <rect x="0" y="343.1" width="1464" height="24.65"/>
            </clipPath>
<clipPath id="terminal-3099049785-line-15">
    <rect x="0" y="367.5" width="1464" height="24.65"/>
            </clipPath>
<clipPath id="terminal-3099049785-line-16">
    <rect x="0" y="391.9" width="1464" height="24.65"/>
            </clipPath>
<clipPath id="terminal-3099049785-line-17">
    <rect x="0" y="416.3" width="1464" height="24.65"/>
            </clipPath>
<clipPath id="terminal-3099049785-line-18">
    <rect x="0" y="440.7" width="1464" height="24.65"/>
            </clipPath>
<clipPath id="terminal-3099049785-line-19">
    <rect x="0" y="465.1" width="1464" height="24.65"/>
            </clipPath>
<clipPath id="terminal-3099049785-line-20">
    <rect x="0" y="489.5" width="1464" height="24.65"/>
            </clipPath>
<clipPath id="terminal-3099049785-line-21">
    <rect x="0" y="513.9" width="1464" height="24.65"/>
            </clipPath>
<clipPath id="terminal-3099049785-line-22">
    <rect x="0" y="538.3" width="1464" height="24.65"/>
            </clipPath>
<clipPath id="terminal-3099049785-line-23">
    <rect x="0" y="562.7" width="1464" height="24.65"/>
            </clipPath>
<clipPath id="terminal-3099049785-line-24">
    <rect x="0" y="587.1" width="1464" height="24.65"/>
            </clipPath>
<clipPath id="terminal-3099049785-line-25">
    <rect x="0" y="611.5" width="1464" height="24.65"/>
            </clipPath>
<clipPath id="terminal-3099049785-line-26">
    <rect x="0" y="635.9" width="1464" height="24.65"/>
            </clipPath>
<clipPath id="terminal-3099049785-line-27">
    <rect x="0" y="660.3" width="1464" height="24.65"/>
            </clipPath>
<clipPath id="terminal-3099049785-line-28">
    <rect x="0" y="684.7" width="1464" height="24.65"/>
            </clipPath>
<clipPath id="terminal-3099049785-line-29">
    <rect x="0" y="709.1" width="1464" height="24.65"/>
            </clipPath>
<clipPath id="terminal-3099049785-line-30">
    <rect x="0" y="733.5" width="1464" height="24.65"/>
            </clipPath>
<clipPath id="terminal-3099049785-line-31">
    <rect x="0" y="757.9" width="1464" height="24.65"/>
            </clipPath>
<clipPath id="terminal-3099049785-line-32">
    <rect x="0" y="782.3" width="1464" height="24.65"/>
            </clipPath>
<clipPath id="terminal-3099049785-line-33">
    <rect x="0" y="806.7" width="1464" height="24.65"/>
            </clipPath>
    </defs>

    <rect fill="#292929" stroke="rgba(255,255,255,0.35)" stroke-width="1" x="1" y="1" width="1480" height="902" rx="8"/><text class="terminal-3099049785-title" fill="#c5c8c6" text-anchor="middle" x="740" y="27">Nested&#160;Subagent&#160;Viewer</text>
            <g transform="translate(26,22)">
            <circle cx="0" cy="0" r="7" fill="#ff5f57"/>
            <circle cx="22" cy="0" r="7" fill="#febc2e"/>
            <circle cx="44" cy="0" r="7" fill="#28c840"/>
            </g>
        
    <g transform="translate(9, 41)" clip-path="url(#terminal-3099049785-clip-terminal)">
    <rect fill="#242f38" x="0" y="1.5" width="12.2" height="24.65" shape-rendering="crispEdges"/><rect fill="#242f38" x="12.2" y="1.5" width="12.2" height="24.65" shape-rendering="crispEdges"/><rect fill="#242f38" x="24.4" y="1.5" width="61" height="24.65" shape-rendering="crispEdges"/><rect fill="#242f38" x="85.4" y="1.5" width="12.2" height="24.65" shape-rendering="crispEdges"/><rect fill="#242f38" x="97.6" y="1.5" width="488" height="24.65" shape-rendering="crispEdges"/><rect fill="#242f38" x="585.6" y="1.5" width="268.4" height="24.65" shape-rendering="crispEdges"/><rect fill="#242f38" x="854" y="1.5" width="488" height="24.65" shape-rendering="crispEdges"/><rect fill="#242f38" x="1342" y="1.5" width="12.2" height="24.65" shape-rendering="crispEdges"/><rect fill="#242f38" x="1354.2" y="1.5" width="0" height="24.65" shape-rendering="crispEdges"/><rect fill="#242f38" x="1354.2" y="1.5" width="97.6" height="24.65" shape-rendering="crispEdges"/><rect fill="#242f38" x="1451.8" y="1.5" width="12.2" height="24.65" shape-rendering="crispEdges"/><rect fill="#272727" x="0" y="25.9" width="1464" height="24.65" shape-rendering="crispEdges"/><rect fill="#272727" x="0" y="50.3" width="24.4" height="24.65" shape-rendering="crispEdges"/><rect fill="#272727" x="24.4" y="50.3" width="24.4" height="24.65" shape-rendering="crispEdges"/><rect fill="#0178d4" x="48.8" y="50.3" width="170.8" height="24.65" shape-rendering="crispEdges"/><rect fill="#0178d4" x="219.6" y="50.3" width="12.2" height="24.65" shape-rendering="crispEdges"/><rect fill="#0178d4" x="231.8" y="50.3" width="12.2" height="24.65" shape-rendering="crispEdges"/><rect fill="#0178d4" x="244" y="50.3" width="12.2" height="24.65" shape-rendering="crispEdges"/><rect fill="#0178d4" x="256.2" y="50.3" width="109.8" height="24.65" shape-rendering="crispEdges"/><rect fill="#0178d4" x="366" y="50.3" width="488" height="24.65" shape-rendering="crispEdges"/><rect fill="#0178d4" x="854" y="50.3" width="97.6" height="24.65" shape-rendering="crispEdges"/><rect fill="#272727" x="951.6" y="50.3" width="488" height="24.65" shape-rendering="crispEdges"/><rect fill="#272727" x="1439.6" y="50.3" width="24.4" height="24.65" shape-rendering="crispEdges"/><rect fill="#272727" x="0" y="74.7" width="24.4" height="24.65" shape-rendering="crispEdges"/><rect fill="#272727" x="24.4" y="74.7" width="48.8" height="24.65" shape-rendering="crispEdges"/><rect fill="#272727" x="73.2" y="74.7" width="24.4" height="24.65" shape-rendering="crispEdges"/><rect fill="#272727" x="97.6" y="74.7" width="12.2" height="24.65" shape-rendering="crispEdges"/><rect fill="#272727" x="109.8" y="74.7" width="317.2" height="24.65" shape-rendering="crispEdges"/><rect fill="#272727" x="427" y="74.7" width="48.8" height="24.65" shape-rendering="crispEdges"/><rect fill="#272727" x="475.8" y="74.7" width="963.8" height="24.65" shape-rendering="crispEdges"/><rect fill="#272727" x="1439.6" y="74.7" width="24.4" height="24.65" shape-rendering="crispEdges"/><rect fill="#272727" x="0" y="99.1" width="24.4" height="24.65" shape-rendering="crispEdges"/><rect fill="#272727" x="24.4" y="99.1" width="48.8" height="24.65" shape-rendering="crispEdges"/><rect fill="#272727" x="73.2" y="99.1" width="48.8" height="24.65" shape-rendering="crispEdges"/><rect fill="#272727" x="122" y="99.1" width="219.6" height="24.65" shape-rendering="crispEdges"/><rect fill="#272727" x="341.6" y="99.1" width="1098" height="24.65" shape-rendering="crispEdges"/><rect fill="#272727" x="1439.6" y="99.1" width="24.4" height="24.65" shape-rendering="crispEdges"/><rect fill="#272727" x="0" y="123.5" width="24.4" height="24.65" shape-rendering="crispEdges"/><rect fill="#272727" x="24.4" y="123.5" width="48.8" height="24.65" shape-rendering="crispEdges"/><rect fill="#272727" x="73.2" y="123.5" width="24.4" height="24.65" shape-rendering="crispEdges"/><rect fill="#272727" x="97.6" y="123.5" width="12.2" height="24.65" shape-rendering="crispEdges"/><rect fill="#272727" x="109.8" y="123.5" width="268.4" height="24.65" shape-rendering="crispEdges"/><rect fill="#272727" x="378.2" y="123.5" width="48.8" height="24.65" shape-rendering="crispEdges"/><rect fill="#272727" x="427" y="123.5" width="1012.6" height="24.65" shape-rendering="crispEdges"/><rect fill="#272727" x="1439.6" y="123.5" width="24.4" height="24.65" shape-rendering="crispEdges"/><rect fill="#272727" x="0" y="147.9" width="24.4" height="24.65" shape-rendering="crispEdges"/><rect fill="#272727" x="24.4" y="147.9" width="48.8" height="24.65" shape-rendering="crispEdges"/><rect fill="#272727" x="73.2" y="147.9" width="48.8" height="24.65" shape-rendering="crispEdges"/><rect fill="#272727" x="122" y="147.9" width="366" height="24.65" shape-rendering="crispEdges"/><rect fill="#272727" x="488" y="147.9" width="951.6" height="24.65" shape-rendering="crispEdges"/><rect fill="#272727" x="1439.6" y="147.9" width="24.4" height="24.65" shape-rendering="crispEdges"/><rect fill="#272727" x="0" y="172.3" width="24.4" height="24.65" shape-rendering="crispEdges"/><rect fill="#272727" x="24.4" y="172.3" width="48.8" height="24.65" shape-rendering="crispEdges"/><rect fill="#272727" x="73.2" y="172.3" width="24.4" height="24.65" shape-rendering="crispEdges"/><rect fill="#272727" x="97.6" y="172.3" width="12.2" height="24.65" shape-rendering="crispEdges"/><rect fill="#272727" x="109.8" y="172.3" width="317.2" height="24.65" shape-rendering="crispEdges"/><rect fill="#272727" x="427" y="172.3" width="48.8" height="24.65" shape-rendering="crispEdges"/><rect fill="#272727" x="475.8" y="172.3" width="963.8" height="24.65" shape-rendering="crispEdges"/><rect fill="#272727" x="1439.6" y="172.3" width="24.4" height="24.65" shape-rendering="crispEdges"/><rect fill="#272727" x="0" y="196.7" width="24.4" height="24.65" shape-rendering="crispEdges"/><rect fill="#272727" x="24.4" y="196.7" width="48.8" height="24.65" shape-rendering="crispEdges"/><rect fill="#272727" x="73.2" y="196.7" width="48.8" height="24.65" shape-rendering="crispEdges"/><rect fill="#272727" x="122" y="196.7" width="475.8" height="24.65" shape-rendering="crispEdges"/><rect fill="#272727" x="597.8" y="196.7" width="841.8" height="24.65" shape-rendering="crispEdges"/><rect fill="#272727" x="1439.6" y="196.7" width="24.4" height="24.65" shape-rendering="crispEdges"/><rect fill="#272727" x="0" y="221.1" width="24.4" height="24.65" shape-rendering="crispEdges"/><rect fill="#272727" x="24.4" y="221.1" width="48.8" height="24.65" shape-rendering="crispEdges"/><rect fill="#272727" x="73.2" y="221.1" width="24.4" height="24.65" shape-rendering="crispEdges"/><rect fill="#272727" x="97.6" y="221.1" width="12.2" height="24.65" shape-rendering="crispEdges"/><rect fill="#272727" x="109.8" y="221.1" width="329.4" height="24.65" shape-rendering="crispEdges"/><rect fill="#272727" x="439.2" y="221.1" width="48.8" height="24.65" shape-rendering="crispEdges"/><rect fill="#272727" x="488" y="221.1" width="951.6" height="24.65" shape-rendering="crispEdges"/><rect fill="#272727" x="1439.6" y="221.1" width="24.4" height="24.65" shape-rendering="crispEdges"/><rect fill="#272727" x="0" y="245.5" width="24.4" height="24.65" shape-rendering="crispEdges"/><rect fill="#272727" x="24.4" y="245.5" width="48.8" height="24.65" shape-rendering="crispEdges"/><rect fill="#272727" x="73.2" y="245.5" width="48.8" height="24.65" shape-rendering="crispEdges"/><rect fill="#272727" x="122" y="245.5" width="280.6" height="24.65" shape-rendering="crispEdges"/><rect fill="#272727" x="402.6" y="245.5" width="1037" height="24.65" shape-rendering="crispEdges"/><rect fill="#272727" x="1439.6" y="245.5" width="24.4" height="24.65" shape-rendering="crispEdges"/><rect fill="#272727" x="0" y="269.9" width="24.4" height="24.65" shape-rendering="crispEdges"/><rect fill="#272727" x="24.4" y="269.9" width="48.8" height="24.65" shape-rendering="crispEdges"/><rect fill="#272727" x="73.2" y="269.9" width="24.4" height="24.65" shape-rendering="crispEdges"/><rect fill="#272727" x="97.6" y="269.9" width="73.2" height="24.65" shape-rendering="crispEdges"/><rect fill="#272727" x="170.8" y="269.9" width="12.2" height="24.65" shape-rendering="crispEdges"/><rect fill="#272727" x="183" y="269.9" width="146.4" height="24.65" shape-rendering="crispEdges"/><rect fill="#272727" x="329.4" y="269.9" width="1110.2" height="24.65" shape-rendering="crispEdges"/><rect fill="#272727" x="1439.6" y="269.9" width="24.4" height="24.65" shape-rendering="crispEdges"/><rect fill="#272727" x="0" y="294.3" width="24.4" height="24.65" shape-rendering="crispEdges"/><rect fill="#272727" x="24.4" y="294.3" width="48.8" height="24.65" shape-rendering="crispEdges"/><rect fill="#272727" x="73.2" y="294.3" width="48.8" height="24.65" shape-rendering="crispEdges"/><rect fill="#272727" x="122" y="294.3" width="1220" height="24.65" shape-rendering="crispEdges"/><rect fill="#272727" x="1342" y="294.3" width="97.6" height="24.65" shape-rendering="crispEdges"/><rect fill="#272727" x="1439.6" y="294.3" width="24.4" height="24.65" shape-rendering="crispEdges"/><rect fill="#272727" x="0" y="318.7" width="24.4" height="24.65" shape-rendering="crispEdges"/><rect fill="#272727" x="24.4" y="318.7" width="1415.2" height="24.65" shape-rendering="crispEdges"/><rect fill="#272727" x="1439.6" y="318.7" width="24.4" height="24.65" shape-rendering="crispEdges"/><rect fill="#272727" x="0" y="343.1" width="24.4" height="24.65" shape-rendering="crispEdges"/><rect fill="#272727" x="24.4" y="343.1" width="1415.2" height="24.65" shape-rendering="crispEdges"/><rect fill="#272727" x="1439.6" y="343.1" width="24.4" height="24.65" shape-rendering="crispEdges"/><rect fill="#272727" x="0" y="367.5" width="24.4" height="24.65" shape-rendering="crispEdges"/><rect fill="#272727" x="24.4" y="367.5" width="1415.2" height="24.65" shape-rendering="crispEdges"/><rect fill="#272727" x="1439.6" y="367.5" width="24.4" height="24.65" shape-rendering="crispEdges"/><rect fill="#272727" x="0" y="391.9" width="24.4" height="24.65" shape-rendering="crispEdges"/><rect fill="#272727" x="24.4" y="391.9" width="1415.2" height="24.65" shape-rendering="crispEdges"/><rect fill="#272727" x="1439.6" y="391.9" width="24.4" height="24.65" shape-rendering="crispEdges"/><rect fill="#272727" x="0" y="416.3" width="24.4" height="24.65" shape-rendering="crispEdges"/><rect fill="#272727" x="24.4" y="416.3" width="1415.2" height="24.65" shape-rendering="crispEdges"/><rect fill="#272727" x="1439.6" y="416.3" width="24.4" height="24.65" shape-rendering="crispEdges"/><rect fill="#272727" x="0" y="440.7" width="24.4" height="24.65" shape-rendering="crispEdges"/><rect fill="#272727" x="24.4" y="440.7" width="1415.2" height="24.65" shape-rendering="crispEdges"/><rect fill="#272727" x="1439.6" y="440.7" width="24.4" height="24.65" shape-rendering="crispEdges"/><rect fill="#272727" x="0" y="465.1" width="24.4" height="24.65" shape-rendering="crispEdges"/><rect fill="#272727" x="24.4" y="465.1" width="1415.2" height="24.65" shape-rendering="crispEdges"/><rect fill="#272727" x="1439.6" y="465.1" width="24.4" height="24.65" shape-rendering="crispEdges"/><rect fill="#272727" x="0" y="489.5" width="24.4" height="24.65" shape-rendering="crispEdges"/><rect fill="#272727" x="24.4" y="489.5" width="1415.2" height="24.65" shape-rendering="crispEdges"/><rect fill="#272727" x="1439.6" y="489.5" width="24.4" height="24.65" shape-rendering="crispEdges"/><rect fill="#272727" x="0" y="513.9" width="24.4" height="24.65" shape-rendering="crispEdges"/><rect fill="#272727" x="24.4" y="513.9" width="1415.2" height="24.65" shape-rendering="crispEdges"/><rect fill="#272727" x="1439.6" y="513.9" width="24.4" height="24.65" shape-rendering="crispEdges"/><rect fill="#272727" x="0" y="538.3" width="24.4" height="24.65" shape-rendering="crispEdges"/><rect fill="#272727" x="24.4" y="538.3" width="1415.2" height="24.65" shape-rendering="crispEdges"/><rect fill="#272727" x="1439.6" y="538.3" width="24.4" height="24.65" shape-rendering="crispEdges"/><rect fill="#272727" x="0" y="562.7" width="24.4" height="24.65" shape-rendering="crispEdges"/><rect fill="#272727" x="24.4" y="562.7" width="1415.2" height="24.65" shape-rendering="crispEdges"/><rect fill="#272727" x="1439.6" y="562.7" width="24.4" height="24.65" shape-rendering="crispEdges"/><rect fill="#272727" x="0" y="587.1" width="24.4" height="24.65" shape-rendering="crispEdges"/><rect fill="#272727" x="24.4" y="587.1" width="1415.2" height="24.65" shape-rendering="crispEdges"/><rect fill="#272727" x="1439.6" y="587.1" width="24.4" height="24.65" shape-rendering="crispEdges"/><rect fill="#272727" x="0" y="611.5" width="24.4" height="24.65" shape-rendering="crispEdges"/><rect fill="#272727" x="24.4" y="611.5" width="1415.2" height="24.65" shape-rendering="crispEdges"/><rect fill="#272727" x="1439.6" y="611.5" width="24.4" height="24.65" shape-rendering="crispEdges"/><rect fill="#272727" x="0" y="635.9" width="24.4" height="24.65" shape-rendering="crispEdges"/><rect fill="#272727" x="24.4" y="635.9" width="1415.2" height="24.65" shape-rendering="crispEdges"/><rect fill="#272727" x="1439.6" y="635.9" width="24.4" height="24.65" shape-rendering="crispEdges"/><rect fill="#272727" x="0" y="660.3" width="24.4" height="24.65" shape-rendering="crispEdges"/><rect fill="#272727" x="24.4" y="660.3" width="1415.2" height="24.65" shape-rendering="crispEdges"/><rect fill="#272727" x="1439.6" y="660.3" width="24.4" height="24.65" shape-rendering="crispEdges"/><rect fill="#272727" x="0" y="684.7" width="24.4" height="24.65" shape-rendering="crispEdges"/><rect fill="#272727" x="24.4" y="684.7" width="1415.2" height="24.65" shape-rendering="crispEdges"/><rect fill="#272727" x="1439.6" y="684.7" width="24.4" height="24.65" shape-rendering="crispEdges"/><rect fill="#272727" x="0" y="709.1" width="24.4" height="24.65" shape-rendering="crispEdges"/><rect fill="#272727" x="24.4" y="709.1" width="1415.2" height="24.65" shape-rendering="crispEdges"/><rect fill="#272727" x="1439.6" y="709.1" width="24.4" height="24.65" shape-rendering="crispEdges"/><rect fill="#272727" x="0" y="733.5" width="24.4" height="24.65" shape-rendering="crispEdges"/><rect fill="#272727" x="24.4" y="733.5" width="1415.2" height="24.65" shape-rendering="crispEdges"/><rect fill="#272727" x="1439.6" y="733.5" width="24.4" height="24.65" shape-rendering="crispEdges"/><rect fill="#272727" x="0" y="757.9" width="24.4" height="24.65" shape-rendering="crispEdges"/><rect fill="#272727" x="24.4" y="757.9" width="1415.2" height="24.65" shape-rendering="crispEdges"/><rect fill="#272727" x="1439.6" y="757.9" width="24.4" height="24.65" shape-rendering="crispEdges"/><rect fill="#272727" x="0" y="782.3" width="24.4" height="24.65" shape-rendering="crispEdges"/><rect fill="#272727" x="24.4" y="782.3" width="1415.2" height="24.65" shape-rendering="crispEdges"/><rect fill="#272727" x="1439.6" y="782.3" width="24.4" height="24.65" shape-rendering="crispEdges"/><rect fill="#272727" x="0" y="806.7" width="1464" height="24.65" shape-rendering="crispEdges"/><rect fill="#242f38" x="0" y="831.1" width="61" height="24.65" shape-rendering="crispEdges"/><rect fill="#242f38" x="61" y="831.1" width="61" height="24.65" shape-rendering="crispEdges"/><rect fill="#242f38" x="122" y="831.1" width="36.6" height="24.65" shape-rendering="crispEdges"/><rect fill="#242f38" x="158.6" y="831.1" width="97.6" height="24.65" shape-rendering="crispEdges"/><rect fill="#242f38" x="256.2" y="831.1" width="36.6" height="24.65" shape-rendering="crispEdges"/><rect fill="#242f38" x="292.8" y="831.1" width="61" height="24.65" shape-rendering="crispEdges"/><rect fill="#242f38" x="353.8" y="831.1" width="963.8" height="24.65" shape-rendering="crispEdges"/><rect fill="#242f38" x="1317.6" y="831.1" width="12.2" height="24.65" shape-rendering="crispEdges"/><rect fill="#242f38" x="1329.8" y="831.1" width="24.4" height="24.65" shape-rendering="crispEdges"/><rect fill="#242f38" x="1354.2" y="831.1" width="97.6" height="24.65" shape-rendering="crispEdges"/><rect fill="#242f38" x="1451.8" y="831.1" width="12.2" height="24.65" shape-rendering="crispEdges"/>
    <g class="terminal-3099049785-matrix">
    <text class="terminal-3099049785-r2" x="12.2" y="20" textLength="12.2" clip-path="url(#terminal-3099049785-line-0)">⭘</text><text class="terminal-3099049785-r2" x="585.6" y="20" textLength="268.4" clip-path="url(#terminal-3099049785-line-0)">Nested&#160;Subagent&#160;Viewer</text><text class="terminal-3099049785-r1" x="1464" y="20" textLength="12.2" clip-path="url(#terminal-3099049785-line-0)">
</text><text class="terminal-3099049785-r1" x="1464" y="44.4" textLength="12.2" clip-path="url(#terminal-3099049785-line-1)">
</text><text class="terminal-3099049785-r2" x="24.4" y="68.8" textLength="24.4" clip-path="url(#terminal-3099049785-line-2)">▼&#160;</text><text class="terminal-3099049785-r3" x="48.8" y="68.8" textLength="170.8" clip-path="url(#terminal-3099049785-line-2)">Task&#160;#a1b2c3d4</text><text class="terminal-3099049785-r3" x="231.8" y="68.8" textLength="12.2" clip-path="url(#terminal-3099049785-line-2)">✓</text><text class="terminal-3099049785-r4" x="256.2" y="68.8" textLength="109.8" clip-path="url(#terminal-3099049785-line-2)">completed</text><text class="terminal-3099049785-r3" x="366" y="68.8" textLength="488" clip-path="url(#terminal-3099049785-line-2)">&#160;&quot;Fix&#160;authentication&#160;bug&#160;in&#160;login&#160;flow&quot;&#160;</text><text class="terminal-3099049785-r5" x="854" y="68.8" textLength="97.6" clip-path="url(#terminal-3099049785-line-2)">(sonnet)</text><text class="terminal-3099049785-r1" x="1464" y="68.8" textLength="12.2" clip-path="url(#terminal-3099049785-line-2)">
</text><text class="terminal-3099049785-r6" x="24.4" y="93.2" textLength="48.8" clip-path="url(#terminal-3099049785-line-3)">├──&#160;</text><text class="terminal-3099049785-r2" x="73.2" y="93.2" textLength="24.4" clip-path="url(#terminal-3099049785-line-3)">▼&#160;</text><text class="terminal-3099049785-r7" x="97.6" y="93.2" textLength="12.2" clip-path="url(#terminal-3099049785-line-3)">✓</text><text class="terminal-3099049785-r2" x="109.8" y="93.2" textLength="317.2" clip-path="url(#terminal-3099049785-line-3)">&#160;Read&#160;&quot;src/auth/login.py&quot;&#160;</text><text class="terminal-3099049785-r8" x="427" y="93.2" textLength="48.8" clip-path="url(#terminal-3099049785-line-3)">0.3s</text><text class="terminal-3099049785-r1" x="1464" y="93.2" textLength="12.2" clip-path="url(#terminal-3099049785-line-3)">
</text><text class="terminal-3099049785-r6" x="24.4" y="117.6" textLength="48.8" clip-path="url(#terminal-3099049785-line-4)">│&#160;&#160;&#160;</text><text class="terminal-3099049785-r6" x="73.2" y="117.6" textLength="48.8" clip-path="url(#terminal-3099049785-line-4)">└──&#160;</text><text class="terminal-3099049785-r8" x="122" y="117.6" textLength="219.6" clip-path="url(#terminal-3099049785-line-4)">└──&#160;Read&#160;142&#160;lines</text><text class="terminal-3099049785-r1" x="1464" y="117.6" textLength="12.2" clip-path="url(#terminal-3099049785-line-4)">
</text><text class="terminal-3099049785-r6" x="24.4" y="142" textLength="48.8" clip-path="url(#terminal-3099049785-line-5)">├──&#160;</text><text class="terminal-3099049785-r2" x="73.2" y="142" textLength="24.4" clip-path="url(#terminal-3099049785-line-5)">▼&#160;</text><text class="terminal-3099049785-r7" x="97.6" y="142" textLength="12.2" clip-path="url(#terminal-3099049785-line-5)">✓</text><text class="terminal-3099049785-r2" x="109.8" y="142" textLength="268.4" clip-path="url(#terminal-3099049785-line-5)">&#160;Grep&#160;&quot;session_token&quot;&#160;</text><text class="terminal-3099049785-r8" x="378.2" y="142" textLength="48.8" clip-path="url(#terminal-3099049785-line-5)">0.1s</text><text class="terminal-3099049785-r1" x="1464" y="142" textLength="12.2" clip-path="url(#terminal-3099049785-line-5)">
</text><text class="terminal-3099049785-r6" x="24.4" y="166.4" textLength="48.8" clip-path="url(#terminal-3099049785-line-6)">│&#160;&#160;&#160;</text><text class="terminal-3099049785-r6" x="73.2" y="166.4" textLength="48.8" clip-path="url(#terminal-3099049785-line-6)">└──&#160;</text><text class="terminal-3099049785-r8" x="122" y="166.4" textLength="366" clip-path="url(#terminal-3099049785-line-6)">└──&#160;Found&#160;3&#160;matches&#160;in&#160;2&#160;files</text><text class="terminal-3099049785-r1" x="1464" y="166.4" textLength="12.2" clip-path="url(#terminal-3099049785-line-6)">
</text><text class="terminal-3099049785-r6" x="24.4" y="190.8" textLength="48.8" clip-path="url(#terminal-3099049785-line-7)">├──&#160;</text><text class="terminal-3099049785-r2" x="73.2" y="190.8" textLength="24.4" clip-path="url(#terminal-3099049785-line-7)">▼&#160;</text><text class="terminal-3099049785-r7" x="97.6" y="190.8" textLength="12.2" clip-path="url(#terminal-3099049785-line-7)">✓</text><text class="terminal-3099049785-r2" x="109.8" y="190.8" textLength="317.2" clip-path="url(#terminal-3099049785-line-7)">&#160;Edit&#160;&quot;src/auth/login.py&quot;&#160;</text><text class="terminal-3099049785-r8" x="427" y="190.8" textLength="48.8" clip-path="url(#terminal-3099049785-line-7)">2.1s</text><text class="terminal-3099049785-r1" x="1464" y="190.8" textLength="12.2" clip-path="url(#terminal-3099049785-line-7)">
</text><text class="terminal-3099049785-r6" x="24.4" y="215.2" textLength="48.8" clip-path="url(#terminal-3099049785-line-8)">│&#160;&#160;&#160;</text><text class="terminal-3099049785-r6" x="73.2" y="215.2" textLength="48.8" clip-path="url(#terminal-3099049785-line-8)">└──&#160;</text><text class="terminal-3099049785-r8" x="122" y="215.2" textLength="475.8" clip-path="url(#terminal-3099049785-line-8)">└──&#160;lines&#160;42-58:&#160;added&#160;token&#160;validation</text><text class="terminal-3099049785-r1" x="1464" y="215.2" textLength="12.2" clip-path="url(#terminal-3099049785-line-8)">
</text><text class="terminal-3099049785-r6" x="24.4" y="239.6" textLength="48.8" clip-path="url(#terminal-3099049785-line-9)">├──&#160;</text><text class="terminal-3099049785-r2" x="73.2" y="239.6" textLength="24.4" clip-path="url(#terminal-3099049785-line-9)">▼&#160;</text><text class="terminal-3099049785-r7" x="97.6" y="239.6" textLength="12.2" clip-path="url(#terminal-3099049785-line-9)">✓</text><text class="terminal-3099049785-r2" x="109.8" y="239.6" textLength="329.4" clip-path="url(#terminal-3099049785-line-9)">&#160;Bash&#160;&quot;pytest&#160;tests/auth/&quot;&#160;</text><text class="terminal-3099049785-r8" x="439.2" y="239.6" textLength="48.8" clip-path="url(#terminal-3099049785-line-9)">4.2s</text><text class="terminal-3099049785-r1" x="1464" y="239.6" textLength="12.2" clip-path="url(#terminal-3099049785-line-9)">
</text><text class="terminal-3099049785-r6" x="24.4" y="264" textLength="48.8" clip-path="url(#terminal-3099049785-line-10)">│&#160;&#160;&#160;</text><text class="terminal-3099049785-r6" x="73.2" y="264" textLength="48.8" clip-path="url(#terminal-3099049785-line-10)">└──&#160;</text><text class="terminal-3099049785-r8" x="122" y="264" textLength="280.6" clip-path="url(#terminal-3099049785-line-10)">└──&#160;12&#160;passed,&#160;0&#160;failed</text><text class="terminal-3099049785-r1" x="1464" y="264" textLength="12.2" clip-path="url(#terminal-3099049785-line-10)">
</text><text class="terminal-3099049785-r6" x="24.4" y="288.4" textLength="48.8" clip-path="url(#terminal-3099049785-line-11)">└──&#160;</text><text class="terminal-3099049785-r2" x="73.2" y="288.4" textLength="24.4" clip-path="url(#terminal-3099049785-line-11)">▼&#160;</text><text class="terminal-3099049785-r9" x="97.6" y="288.4" textLength="73.2" clip-path="url(#terminal-3099049785-line-11)">Result</text><text class="terminal-3099049785-r8" x="183" y="288.4" textLength="146.4" clip-path="url(#terminal-3099049785-line-11)">(8.5s&#160;total)</text><text class="terminal-3099049785-r1" x="1464" y="288.4" textLength="12.2" clip-path="url(#terminal-3099049785-line-11)">
</text><text class="terminal-3099049785-r6" x="73.2" y="312.8" textLength="48.8" clip-path="url(#terminal-3099049785-line-12)">└──&#160;</text><text class="terminal-3099049785-r8" x="122" y="312.8" textLength="1220" clip-path="url(#terminal-3099049785-line-12)">Fixed&#160;the&#160;authentication&#160;bug&#160;by&#160;adding&#160;proper&#160;session&#160;token&#160;validation&#160;in&#160;the&#160;login&#160;flow.&#160;All&#160;tests&#160;</text><text class="terminal-3099049785-r1" x="1464" y="312.8" textLength="12.2" clip-path="url(#terminal-3099049785-line-12)">
</text><text class="terminal-3099049785-r1" x="1464" y="337.2" textLength="12.2" clip-path="url(#terminal-3099049785-line-13)">
</text><text class="terminal-3099049785-r1" x="1464" y="361.6" textLength="12.2" clip-path="url(#terminal-3099049785-line-14)">
</text><text class="terminal-3099049785-r1" x="1464" y="386" textLength="12.2" clip-path="url(#terminal-3099049785-line-15)">
</text><text class="terminal-3099049785-r1" x="1464" y="410.4" textLength="12.2" clip-path="url(#terminal-3099049785-line-16)">
</text><text class="terminal-3099049785-r1" x="1464" y="434.8" textLength="12.2" clip-path="url(#terminal-3099049785-line-17)">
</text><text class="terminal-3099049785-r1" x="1464" y="459.2" textLength="12.2" clip-path="url(#terminal-3099049785-line-18)">
</text><text class="terminal-3099049785-r1" x="1464" y="483.6" textLength="12.2" clip-path="url(#terminal-3099049785-line-19)">
</text><text class="terminal-3099049785-r1" x="1464" y="508" textLength="12.2" clip-path="url(#terminal-3099049785-line-20)">
</text><text class="terminal-3099049785-r1" x="1464" y="532.4" textLength="12.2" clip-path="url(#terminal-3099049785-line-21)">
</text><text class="terminal-3099049785-r1" x="1464" y="556.8" textLength="12.2" clip-path="url(#terminal-3099049785-line-22)">
</text><text class="terminal-3099049785-r1" x="1464" y="581.2" textLength="12.2" clip-path="url(#terminal-3099049785-line-23)">
</text><text class="terminal-3099049785-r1" x="1464" y="605.6" textLength="12.2" clip-path="url(#terminal-3099049785-line-24)">
</text><text class="terminal-3099049785-r1" x="1464" y="630" textLength="12.2" clip-path="url(#terminal-3099049785-line-25)">
</text><text class="terminal-3099049785-r1" x="1464" y="654.4" textLength="12.2" clip-path="url(#terminal-3099049785-line-26)">
</text><text class="terminal-3099049785-r1" x="1464" y="678.8" textLength="12.2" clip-path="url(#terminal-3099049785-line-27)">
</text><text class="terminal-3099049785-r1" x="1464" y="703.2" textLength="12.2" clip-path="url(#terminal-3099049785-line-28)">
</text><text class="terminal-3099049785-r1" x="1464" y="727.6" textLength="12.2" clip-path="url(#terminal-3099049785-line-29)">
</text><text class="terminal-3099049785-r1" x="1464" y="752" textLength="12.2" clip-path="url(#terminal-3099049785-line-30)">
</text><text class="terminal-3099049785-r1" x="1464" y="776.4" textLength="12.2" clip-path="url(#terminal-3099049785-line-31)">
</text><text class="terminal-3099049785-r1" x="1464" y="800.8" textLength="12.2" clip-path="url(#terminal-3099049785-line-32)">
</text><text class="terminal-3099049785-r1" x="1464" y="825.2" textLength="12.2" clip-path="url(#terminal-3099049785-line-33)">
</text><text class="terminal-3099049785-r10" x="0" y="849.6" textLength="61" clip-path="url(#terminal-3099049785-line-34)">&#160;esc&#160;</text><text class="terminal-3099049785-r2" x="61" y="849.6" textLength="61" clip-path="url(#terminal-3099049785-line-34)">Back&#160;</text><text class="terminal-3099049785-r10" x="122" y="849.6" textLength="36.6" clip-path="url(#terminal-3099049785-line-34)">&#160;r&#160;</text><text class="terminal-3099049785-r2" x="158.6" y="849.6" textLength="97.6" clip-path="url(#terminal-3099049785-line-34)">Refresh&#160;</text><text class="terminal-3099049785-r10" x="256.2" y="849.6" textLength="36.6" clip-path="url(#terminal-3099049785-line-34)">&#160;q&#160;</text><text class="terminal-3099049785-r2" x="292.8" y="849.6" textLength="61" clip-path="url(#terminal-3099049785-line-34)">Quit&#160;</text><text class="terminal-3099049785-r11" x="1317.6" y="849.6" textLength="12.2" clip-path="url(#terminal-3099049785-line-34)">▏</text><text class="terminal-3099049785-r10" x="1329.8" y="849.6" textLength="24.4" clip-path="url(#terminal-3099049785-line-34)">^p</text><text class="terminal-3099049785-r2" x="1354.2" y="849.6" textLength="97.6" clip-path="url(#terminal-3099049785-line-34)">&#160;palette</text>
    </g>
    </g>
</svg>
